<?xml version="1.0" encoding="UTF-8"?>
<svg id="Layer_2" data-name="Layer 2" xmlns="http://www.w3.org/2000/svg" viewBox="0 0 187.73 185">
  <defs>
    <style>
      .cls-1 {
        fill: #f7941d;
      }

      .cls-1, .cls-2, .cls-3 {
        stroke-width: 0px;
      }

      .cls-2 {
        fill: #f26b36;
      }

      .cls-3 {
        fill: #0f8497;
      }
    </style>
  </defs>
  <g id="Layer_1-2" data-name="Layer 1">
    <g>
      <path class="cls-1" d="m50.28,171.83c-6.43-3.36-11.18-8.23-16.21-13.06-.6.69-1.09,1.19-1.49,1.74-2.34,3.24-4.63,6.52-7.01,9.72-.95,1.27-1.99,2.52-3.18,3.56-2.19,1.9-4.62,2.03-7.1.53-3.26-1.97-5.18-5.02-6.12-8.58-2.46-9.3,1.49-20.34,11.26-24.69.43-.19.83-.45,1.4-.76-.23-.64-.37-1.25-.64-1.79-5.47-11.35-7.63-23.35-6.8-35.86.53-8.01,2.37-15.79,5.22-23.31.2-.52.4-1.04.57-1.57.04-.14-.02-.31-.05-.63-.4-.05-.86-.2-1.28-.14-7.62,1.06-14.6-3.58-17.36-9.77-3.05-6.83-1.31-14.71,4.47-19.6,7.68-6.5,20.25-4.96,25.9,5.18.49.89.97,1.78,1.64,3.03,13.02-16.13,29.3-25.32,50.11-25.71-1.55-1.92-3.19-3.68-4.53-5.65-1.48-2.16-1.99-4.71-2.09-7.29-.1-2.5.37-4.92,1.45-7.21,1.07-2.27,2.41-4.33,4.35-5.96,6.54-5.48,16.3-5.34,22.43.35,3.71,3.43,5.7,7.67,5.62,12.76-.08,4.97-2.07,9.1-6.09,12.28.1.16.2.31.3.47.82.14,1.63.31,2.45.41,4.38.54,8.66,1.47,12.75,3.2,7.87,3.35,12.77,9.14,14.39,17.57.43,2.26.55,4.59.74,6.9.05.58-.15,1.18-.27,2.05-.56-.38-.93-.53-1.16-.79-6.58-7.41-15.1-11.44-24.51-13.74-13.76-3.35-27.33-2.48-40.45,2.88-17.59,7.17-29.35,20-35.87,37.74-2.51,6.83-3.68,13.92-3.67,21.15.01,14.93,4.58,28.27,14.48,39.63,1,1.14,1.94,2.36,3.06,3.37,1.46,1.32,2.06,2.96,2.38,4.82.88,5.05,1.24,10.14,1.15,15.27,0,.38-.1.75-.22,1.5Z"/>
      <path class="cls-3" d="m144,47.09c2.29,1.18,3.55,3.18,5.25,4.67,1.74,1.52,3.46,3.06,5.35,4.74.2-.47.54-1.22.86-1.97,2.02-4.75,5.4-8.18,10.34-9.67,6.26-1.89,12.1-.92,16.86,3.85,4.92,4.94,6.26,10.94,3.98,17.45-2.18,6.25-6.89,9.89-13.39,11.01-2,.34-4.11.05-6.42.05.26.82.47,1.56.74,2.27,2.74,7.3,4.54,14.85,5.06,22.62.67,9.99-.54,19.79-3.91,29.26-.72,2.03-1.49,4.06-2.4,6.01-.55,1.17-.54,2,.38,2.99,5.99,6.48,8.18,14.32,7.96,22.94-.05,2.05-.55,4.1-.96,6.13-.15.76-.56,1.5-.95,2.19-2.67,4.82-6.93,5.22-10.31.87-2.6-3.34-5.03-6.82-7.54-10.23-.65-.89-1.32-1.76-2.14-2.87-.93.89-1.67,1.59-2.39,2.3-11.41,11.26-24.95,18.64-40.68,21.7-16.35,3.18-32.32,1.7-47.67-5.04-.29-.13-.59-.26-.88-.39-3.12-1.47-4.16-3.15-3.98-6.59.1-1.95.6-3.78,1.79-5.38,1.75-2.37,4.33-3.34,7.18-2.59,1,.26,1.98.64,2.94,1.03,9.79,4.03,20.01,5.73,30.52,4.78,16.49-1.49,30.6-8.11,41.86-20.46,9.39-10.3,14.7-22.41,15.79-36.25,1.12-14.15-2.11-27.32-10.05-39.19-1.36-2.03-1.99-4.07-1.91-6.49.2-5.93-.31-11.81-1.28-17.66-.1-.59-.01-1.21-.01-2.06Z"/>
      <path class="cls-2" d="m91.88,111.14c10.09,6.62,19.73,12.94,29.67,19.47.16-1.06.32-1.66.32-2.25.02-8.15-.02-16.3.04-24.46.01-1.53-.66-2.49-1.69-3.49-3.26-3.18-3.95-7.64-1.88-11.4,1.85-3.36,5.79-5.47,9.67-4.91,3.81.55,6.74,2.44,8.02,6.3,1.27,3.85.23,7.8-3,10.34-1.32,1.04-1.65,2.16-1.65,3.69.03,11.51-.02,23.02.05,34.52.02,3.03-.77,5.55-3.53,7.08-2.74,1.52-5.48,1.06-7.95-.57-13.53-8.96-27.02-17.98-40.51-26.99-.53-.35-1.02-.77-1.48-1.21-3.7-3.6-3.35-9.34.91-12.26,2.9-1.98,6-3.67,9.02-5.47,2.47-1.47,4.92-2.99,7.45-4.37,2.37-1.29,3.43-3.2,3.33-5.87-.13-3.51-.33-7.03-.23-10.54.08-3.09-3.35-6.23-7.35-4.91-.83.27-1.6.73-2.36,1.17-7.89,4.57-15.75,9.18-23.66,13.71-2.62,1.5-3.84,3.56-3.81,6.63.11,8.47.08,16.94.01,25.41-.01,1.86.44,3.27,1.77,4.7,3.23,3.48,3.89,7.68,2.1,12.04-1.63,3.96-4.88,6.11-9.08,6.52-4.59.45-8.33-1.27-10.81-5.25-2.59-4.16-2.05-9.83,1.41-13.31,1.38-1.39,1.8-2.81,1.79-4.68-.06-9.91.09-19.82-.07-29.73-.09-5.53,2.15-9.51,6.86-12.25,6.91-4.02,13.81-8.07,20.71-12.1,3.52-2.06,7.09-4.03,10.56-6.18,9.71-6.01,21.61.38,23.74,10.62.39,1.86.53,3.8.57,5.71.09,4.15.06,8.31.04,12.47-.02,6.67-2.73,11.89-8.5,15.39-2.67,1.62-5.35,3.2-8.02,4.82-.67.4-1.31.86-2.47,1.62Zm-33.93,22.96c.02-1.64-1.38-3.04-3.04-3.04-1.6,0-2.92,1.23-3,2.79-.08,1.57,1.34,3.15,2.9,3.22,1.55.07,3.12-1.42,3.14-2.97Z"/>
    </g>
  </g>
</svg>