<?xml version="1.0" encoding="UTF-8"?>
<svg version="1.1" xmlns="http://www.w3.org/2000/svg" width="1221" height="383">
<path d="M0 0 C10.745625 -0.061875 21.49125 -0.12375 32.5625 -0.1875 C35.92381104 -0.21481201 39.28512207 -0.24212402 42.74829102 -0.27026367 C45.45849246 -0.27903813 48.1686979 -0.28667979 50.87890625 -0.29296875 C51.56033188 -0.30080887 52.24175751 -0.30864899 52.9438324 -0.31672668 C70.19208843 -0.50481516 88.46781365 1.86568356 101.55078125 14.35546875 C112.10047508 26.3269542 114.2288496 39.51451009 114 55 C114.40089844 54.29875 114.80179688 53.5975 115.21484375 52.875 C121.99686311 41.55625567 129.83104116 35.07963041 142 30 C142.81597656 29.65839844 143.63195312 29.31679687 144.47265625 28.96484375 C157.82476756 24.41539219 175.1363433 25.46601571 188 31 C201.18698503 37.7472268 208.31784774 46.62635467 214 60 C214.33 61.32 214.66 62.64 215 64 C215.33 52.12 215.66 40.24 216 28 C227.55 28 239.1 28 251 28 C251.05607422 34.05021484 251.05607422 34.05021484 251.11328125 40.22265625 C251.15142757 43.45279431 251.19250002 46.68286588 251.2355423 49.91294098 C251.28007651 53.31490299 251.31953701 56.71674544 251.34643555 60.11889648 C251.37758682 64.02873986 251.43237176 67.93808551 251.48828125 71.84765625 C251.49786613 73.66367088 251.49786613 73.66367088 251.50764465 75.51637268 C251.63733252 82.98973935 252.04034128 88.48540527 257 94.375 C261.14181052 97.74022105 265.91516372 97.47888013 271 97 C275.72488729 95.30617248 278.22647445 93.16028832 281 89 C282.74215191 85.31036538 283.26375971 82.35907455 283.31884766 78.29174805 C283.33871735 77.17096359 283.35858704 76.05017914 283.37905884 74.89543152 C283.39061005 73.6963063 283.40216125 72.49718109 283.4140625 71.26171875 C283.43342865 70.02581497 283.4527948 68.78991119 283.4727478 67.51655579 C283.52232555 64.24348033 283.56362829 60.970439 283.60089111 57.69720459 C283.64102019 54.35206543 283.69223452 51.00711627 283.7421875 47.66210938 C283.83979553 41.10813685 283.91942313 34.55429261 284 28 C295.55 28 307.1 28 319 28 C319 60.34 319 92.68 319 126 C308.11 126 297.22 126 286 126 C285.67 123.36 285.34 120.72 285 118 C284.195625 118.7425 283.39125 119.485 282.5625 120.25 C272.96435307 128.25603725 261.01225335 129.03973985 249 128 C237.52467621 125.85450677 228.67723282 120.62717448 222 111 C217.48390987 103.48338897 216.75280663 95.76403317 215 87 C192.23 87 169.46 87 146 87 C149.20940592 93.30344096 149.20940592 93.30344096 154 96.875 C154.99 97.45894531 154.99 97.45894531 156 98.0546875 C162.59724974 101.17291882 170.99551742 101.0771045 177.93359375 99.2109375 C181.32694809 97.88989911 184.22275249 96.65145023 187.02734375 94.30078125 C189 93 189 93 190.89379883 93.20263672 C195.073486 94.78497801 197.77255254 98.59584362 200.75 101.8125 C201.79607422 102.90014648 201.79607422 102.90014648 202.86328125 104.00976562 C203.52199219 104.71423828 204.18070313 105.41871094 204.859375 106.14453125 C205.76381348 107.10903198 205.76381348 107.10903198 206.68652344 108.09301758 C208 110 208 110 208 114 C200.0321084 122.99405945 186.55862655 127.38310196 174.87402344 128.13720703 C157.03299645 129.01133689 139.85346614 126.76942469 125.8125 114.8125 C113.03066725 102.6326374 109.63091123 89.65023172 109.078125 72.48046875 C109.05234375 71.33191406 109.0265625 70.18335938 109 69 C108.67128906 69.4846875 108.34257813 69.969375 108.00390625 70.46875 C103.95614146 76.17291718 98.63204425 83.5276148 91.7265625 85.72265625 C91.15679687 85.81417969 90.58703125 85.90570313 90 86 C93.98927858 92.42641464 98.13826974 98.71571095 102.4375 104.9375 C105.88031992 109.92040408 109.31129981 114.90911673 112.6875 119.9375 C113.33074219 120.89527344 113.97398437 121.85304688 114.63671875 122.83984375 C116 125 116 125 116 126 C110.5742475 126.22338414 105.15119744 126.38619359 99.72192383 126.49438477 C97.87769938 126.53949995 96.03379431 126.60081372 94.19067383 126.67895508 C78.93783051 127.30916978 78.93783051 127.30916978 74.37207031 124.22460938 C72.54369065 121.90263672 71.2743759 119.66090954 70 117 C69.12096625 115.68216121 68.2234652 114.37638198 67.3046875 113.0859375 C66.49111495 111.85137344 65.68115037 110.61442337 64.875 109.375 C64.06108895 108.13203041 63.24598753 106.88983947 62.4296875 105.6484375 C62.03620117 105.04870117 61.64271484 104.44896484 61.23730469 103.83105469 C59.93612471 101.90547263 58.57173292 100.03642047 57.1953125 98.1640625 C55 95 55 95 55 93 C48.73 93 42.46 93 36 93 C36 103.89 36 114.78 36 126 C24.12 126 12.24 126 0 126 C0 84.42 0 42.84 0 0 Z M36 29 C36 40.88 36 52.76 36 65 C39.63 65.04125 43.26 65.0825 47 65.125 C48.12792969 65.14320801 49.25585938 65.16141602 50.41796875 65.18017578 C58.9665691 65.22689768 66.11598901 64.60326476 73 59 C76.73879965 53.84303496 77.52720724 49.3264869 77 43 C75.20457894 37.7796181 72.80570723 33.90577647 68 31 C61.43124366 28.48736096 55.02063053 28.77294682 48.0625 28.875 C42.0915625 28.936875 42.0915625 28.936875 36 29 Z M148.0625 58.875 C145.54415188 62.23056819 145.54415188 62.23056819 145 68 C157.54 68 170.08 68 183 68 C180.97624039 60.91684137 179.66753835 57.31585881 173.375 53.6875 C164.31202761 49.56030997 154.77070052 51.59181086 148.0625 58.875 Z M112 58 C113 60 113 60 113 60 Z M110 65 C111 67 111 67 111 67 Z " fill="#F7941D" transform="translate(418,144)"/>
<path d="M0 0 C0.88373291 0.00620361 1.76746582 0.01240723 2.67797852 0.01879883 C9.58802838 0.24612416 14.10069862 1.62724354 19.0625 6.625 C20.4546875 7.73875 20.4546875 7.73875 21.875 8.875 C27.3211425 15.72157914 28.73211915 22.8602022 28.45703125 31.5 C27.65233526 37.87382964 24.95115068 42.62212277 21.0625 47.625 C22.80273438 47.95371094 22.80273438 47.95371094 24.578125 48.2890625 C37.22410932 50.80279442 50.56599315 54.12287994 59.0625 64.625 C64.73846459 73.9892373 67.23008049 82.02904808 67.125 93.0625 C67.11597656 94.29871094 67.10695313 95.53492188 67.09765625 96.80859375 C67.08025391 98.20271484 67.08025391 98.20271484 67.0625 99.625 C63.83121949 98.20323657 61.70340235 96.45716533 59.1875 94 C41.7245556 78.2776432 16.98287641 72.54582155 -6.05078125 73.28515625 C-32.52096655 74.7784552 -57.77252736 86.28912564 -75.9375 105.625 C-96.45414794 128.77043789 -103.55968674 156.14140744 -101.9375 186.625 C-100.28762806 204.74102809 -92.65305275 224.05161859 -79.66748047 237.01782227 C-73.39583548 243.29877851 -70.95892203 248.74207136 -69.9375 257.625 C-69.81246094 258.41648437 -69.68742187 259.20796875 -69.55859375 260.0234375 C-68.69155537 266.10368134 -68.37488705 272.51254407 -68.9375 278.625 C-69.5975 279.285 -70.2575 279.945 -70.9375 280.625 C-75.72084823 278.40832643 -79.79322107 275.85753757 -83.9375 272.625 C-83.9375 271.965 -83.9375 271.305 -83.9375 270.625 C-84.494375 270.3775 -85.05125 270.13 -85.625 269.875 C-88.36160913 268.39575182 -90.61400869 266.69032561 -92.9375 264.625 C-92.9375 263.965 -92.9375 263.305 -92.9375 262.625 C-94.2575 262.295 -95.5775 261.965 -96.9375 261.625 C-100.48734658 266.06755948 -103.90683019 270.4961923 -106.9375 275.3125 C-110.52588579 280.74742914 -114.13585175 284.65715788 -120.375 286.8125 C-125.97900229 286.51755251 -129.64436895 284.01657354 -133.484375 280.01171875 C-139.37205044 272.47895753 -139.52225976 263.81941417 -138.9375 254.625 C-137.66659963 244.40409701 -131.94321 236.91560857 -124.3125 230.375 C-121.9375 228.625 -121.9375 228.625 -118.9375 227.625 C-119.93842318 224.55765476 -120.97688634 221.52113965 -122.12109375 218.50390625 C-133.06932452 189.54737067 -133.2383249 156.25970715 -120.9375 127.625 C-121.7109375 127.59921875 -122.484375 127.5734375 -123.28125 127.546875 C-130.07230708 127.17706496 -135.210074 126.35853237 -140.9375 122.625 C-142.2678125 121.75875 -142.2678125 121.75875 -143.625 120.875 C-149.16100202 115.48861965 -151.71464008 110.00963926 -152.10546875 102.3203125 C-152.1670957 91.05490519 -151.04323501 85.32171267 -143.421875 76.859375 C-136.99637027 71.08046194 -130.08149505 70.28823332 -121.7734375 70.421875 C-112.83417327 71.06215288 -106.92090429 75.06488204 -100.9375 81.625 C-100.39867187 82.53507812 -99.85984375 83.44515625 -99.3046875 84.3828125 C-98.85351562 85.12273437 -98.40234375 85.86265625 -97.9375 86.625 C-97.2775 86.625 -96.6175 86.625 -95.9375 86.625 C-94.73199768 85.18509445 -93.53081759 83.74118616 -92.359375 82.2734375 C-90.16409441 79.72835946 -87.54060745 77.7400248 -84.9375 75.625 C-83.7928125 74.449375 -83.7928125 74.449375 -82.625 73.25 C-68.80743461 59.75377334 -49.53092333 51.65179099 -30.5625 49 C-29.17224609 48.79890625 -29.17224609 48.79890625 -27.75390625 48.59375 C-25.48242902 48.26590793 -23.21035344 47.94313573 -20.9375 47.625 C-21.72125 46.573125 -22.505 45.52125 -23.3125 44.4375 C-28.65545681 36.8889434 -28.68956116 29.61213091 -27.9375 20.625 C-26.24967276 13.91205076 -22.15785362 7.3718491 -16.30053711 3.55957031 C-10.89254896 0.51583756 -6.14305611 -0.0773626 0 0 Z " fill="#F6931C" transform="translate(227.9375,33.375)"/>
<path d="M0 0 C11.55 0 23.1 0 35 0 C35 8.25 35 16.5 35 25 C42.26 25 49.52 25 57 25 C57 33.58 57 42.16 57 51 C49.74 51 42.48 51 35 51 C35.096999 56.05415853 35.199767 61.10750904 35.31738281 66.16113281 C35.35563327 67.87981011 35.39049303 69.59856638 35.421875 71.31738281 C35.46761128 73.7900004 35.52559084 76.26207613 35.5859375 78.734375 C35.60326431 79.88459137 35.60326431 79.88459137 35.62094116 81.05804443 C35.72445493 84.81129716 35.81114872 87.86066838 38 91 C40.94246973 93.02178153 42.95509801 93.18843477 46.4375 92.6875 C47.54931641 92.53861328 47.54931641 92.53861328 48.68359375 92.38671875 C51.13459521 91.97752964 53.56443885 91.49206061 56 91 C57.34117853 94.60129621 58.6715839 98.20647859 60 101.8125 C60.3815625 102.83666016 60.763125 103.86082031 61.15625 104.91601562 C61.5171875 105.89892578 61.878125 106.88183594 62.25 107.89453125 C62.58515625 108.80050049 62.9203125 109.70646973 63.265625 110.63989258 C64 113 64 113 64 116 C62.43979133 116.65134925 60.87671421 117.29582964 59.3125 117.9375 C58.00732422 118.47697266 58.00732422 118.47697266 56.67578125 119.02734375 C44.55764088 123.432332 28.56001317 122.31760606 17 117 C9.6497593 112.88678583 3.89729003 106.66267975 1.34375 98.5546875 C-0.99229062 89.52164556 -0.31397338 80.06732889 -0.1875 70.8125 C-0.17242581 68.88738026 -0.15874225 66.96224911 -0.14648438 65.03710938 C-0.11369566 60.35778716 -0.06206443 55.67902174 0 51 C-4.455 51.495 -4.455 51.495 -9 52 C-11.24934834 57.3691518 -11.24934834 57.3691518 -13.49780273 62.73867798 C-15.50488101 67.53281032 -17.51407507 72.32603691 -19.52709961 77.11767578 C-23.47746749 86.52894435 -27.3999994 95.94854872 -31.21875 105.4140625 C-32.19223295 107.8099522 -33.16700128 110.20531422 -34.14230347 112.60046387 C-34.74613966 114.09302246 -35.3444188 115.5878438 -35.93655396 117.08508301 C-41.47434723 131.0810267 -48.35208386 145.72026117 -62.80078125 152.26953125 C-76.61891718 157.56118547 -90.65713284 157.38206156 -104.45703125 152.05078125 C-107.21929998 150.79158488 -109.50620927 149.66017479 -111.34912109 147.19628906 C-112.2850112 144.03827428 -111.29663178 142.6780074 -109.7890625 139.796875 C-109.28632812 138.8171875 -108.78359375 137.8375 -108.265625 136.828125 C-107.72421875 135.81234375 -107.1828125 134.7965625 -106.625 133.75 C-106.09132813 132.71875 -105.55765625 131.6875 -105.0078125 130.625 C-103.68589506 128.0755878 -102.34965952 125.53480358 -101 123 C-97.78543803 123 -96.61459245 123.57167677 -93.8125 125 C-88.01585846 127.6442472 -83.77045056 127.97478816 -77.625 125.8125 C-74.43741123 123.61154585 -73.78761447 122.78304486 -73 119 C-73.7876138 115.77402086 -75.14981828 112.83304872 -76.51171875 109.8125 C-76.90738037 108.89754257 -77.30304199 107.98258514 -77.71069336 107.03990173 C-79.02071479 104.01954817 -80.35436307 101.0102127 -81.6875 98 C-82.59873126 95.90653681 -83.50796865 93.81220469 -84.4152832 91.71704102 C-86.30627636 87.35399062 -88.20494156 82.994407 -90.109375 78.63720703 C-94.27850624 69.08318183 -98.36605002 59.49474823 -102.43154907 49.89624023 C-103.67079694 46.97684868 -104.91930518 44.06154457 -106.16870117 41.14648438 C-106.92928851 39.35694708 -107.68948256 37.56724256 -108.44921875 35.77734375 C-108.79621826 34.97312485 -109.14321777 34.16890594 -109.50073242 33.34031677 C-109.81719727 32.58984573 -110.13366211 31.83937469 -110.4597168 31.06616211 C-110.73470505 30.42182724 -111.0096933 29.77749237 -111.29301453 29.1136322 C-112 27 -112 27 -113 21 C-101.45 21 -89.9 21 -78 21 C-73.50028345 29.99943311 -73.50028345 29.99943311 -71.81762695 34.19091797 C-71.25233025 35.59179153 -71.25233025 35.59179153 -70.6756134 37.02096558 C-70.28379379 38.00146881 -69.89197418 38.98197205 -69.48828125 39.9921875 C-69.07458786 41.01933868 -68.66089447 42.04648987 -68.23466492 43.10476685 C-66.92413394 46.36025791 -65.61813347 49.61754206 -64.3125 52.875 C-62.99527947 56.15352229 -61.677124 59.43166579 -60.35820007 62.70950317 C-59.54013103 64.74343056 -58.72321147 66.77782074 -57.907547 68.81271362 C-57.54013901 69.72771637 -57.17273102 70.64271912 -56.79418945 71.58544922 C-56.47094193 72.39182831 -56.1476944 73.1982074 -55.81465149 74.02902222 C-55.01660609 76.02649367 -55.01660609 76.02649367 -54 78 C-51.04578183 70.68600087 -48.09169352 63.3719493 -45.13769531 56.05786133 C-44.13285174 53.56988975 -43.12796694 51.08193483 -42.12304688 48.59399414 C-40.67830722 45.01712142 -39.23367447 41.44020554 -37.7890625 37.86328125 C-37.34003571 36.75165115 -36.89100891 35.64002106 -36.42837524 34.4947052 C-36.00809052 33.45400375 -35.58780579 32.41330231 -35.15478516 31.34106445 C-34.78616364 30.4283931 -34.41754211 29.51572174 -34.03775024 28.57539368 C-33.02093811 26.05196229 -32.01040196 23.5260049 -31 21 C-20.77 21 -10.54 21 0 21 C0 14.07 0 7.14 0 0 Z " fill="#0F8699" transform="translate(954,151)"/>
<path d="M0 0 C3.1044132 2.57637282 5.21979554 5.16912048 7.08984375 8.734375 C7.40695312 9.32863281 7.7240625 9.92289063 8.05078125 10.53515625 C11.3980542 17.95136191 11.23639403 26.39436345 8.52734375 33.984375 C5.55330266 40.49794387 0.78903446 46.68131327 -5.66796875 50.05859375 C-10.89368345 51.63359139 -16.48814986 51.5839726 -21.91015625 51.734375 C-21.58402344 52.85972656 -21.25789062 53.98507813 -20.921875 55.14453125 C-19.7550648 59.21251476 -18.63671817 63.29216832 -17.54296875 67.38037109 C-17.01281796 69.35248293 -16.46374207 71.3194941 -15.91015625 73.28515625 C-10.12601841 96.95006637 -12.94460405 124.24008033 -23.1875 146.30859375 C-24.15766766 148.70563282 -24.15766766 148.70563282 -23.15625 150.92578125 C-21.86754552 152.85513628 -21.86754552 152.85513628 -20.03515625 154.984375 C-11.20776907 166.40805252 -9.84729351 180.757002 -10.91015625 194.734375 C-11.75727433 199.88275157 -13.06511745 203.58418331 -16.16015625 207.796875 C-19.60890014 210.22667183 -21.69016132 210.80841 -25.91015625 210.734375 C-31.43594174 207.80806494 -34.46519542 203.7743197 -38.03515625 198.734375 C-42.56119699 192.38766929 -42.56119699 192.38766929 -47.91015625 186.734375 C-48.6371875 187.37052734 -48.6371875 187.37052734 -49.37890625 188.01953125 C-50.79704843 189.26040566 -52.21641773 190.49987843 -53.63671875 191.73828125 C-55.05740895 192.98565701 -56.47028265 194.24205928 -57.87109375 195.51171875 C-66.20177347 203.0093305 -75.44569096 209.6617575 -85.87890625 213.89453125 C-87.37335872 214.51242987 -88.85054333 215.17250989 -90.31640625 215.85546875 C-107.11294298 223.42806466 -124.00369886 225.63955509 -142.28515625 225.421875 C-143.26984894 225.41672882 -144.25454163 225.41158264 -145.26907349 225.40628052 C-159.86349522 225.30302823 -173.33668491 224.59003261 -186.91015625 218.734375 C-187.63686523 218.43515137 -188.36357422 218.13592773 -189.11230469 217.82763672 C-200.30943248 213.12302484 -200.30943248 213.12302484 -201.75 209.79296875 C-201.80285156 209.11363281 -201.85570312 208.43429687 -201.91015625 207.734375 C-201.9771875 207.03699219 -202.04421875 206.33960938 -202.11328125 205.62109375 C-202.25185313 199.11976309 -201.20680466 194.29349751 -196.72265625 189.296875 C-192.41187107 186.90199434 -188.24106286 187.10422208 -183.5793457 188.36450195 C-181.08355498 189.22719122 -178.62259096 190.15578625 -176.16015625 191.109375 C-150.65721275 200.39304732 -122.56649583 199.07269174 -97.91015625 187.734375 C-97.09804688 187.37085938 -96.2859375 187.00734375 -95.44921875 186.6328125 C-92.06495455 185.03792937 -89.10662083 183.2083923 -86.09765625 180.984375 C-82.91015625 178.734375 -82.91015625 178.734375 -79.91015625 178.734375 C-79.58015625 177.744375 -79.25015625 176.754375 -78.91015625 175.734375 C-77.34375 174.19140625 -77.34375 174.19140625 -75.34765625 172.546875 C-53.64586355 154.0228448 -43.1851919 129.88918302 -40.91015625 101.734375 C-40.7583627 96.34460417 -41.24145239 91.08400592 -41.91015625 85.734375 C-42.02488281 84.6928125 -42.13960937 83.65125 -42.2578125 82.578125 C-43.90678467 70.41095173 -48.35547052 58.6058703 -55.44433594 48.56030273 C-59.97383166 41.86083316 -60.77763708 36.52909154 -60.72265625 28.546875 C-60.74708989 26.47001581 -60.7743599 24.39318774 -60.8046875 22.31640625 C-60.81330811 21.34791748 -60.82192871 20.37942871 -60.83081055 19.3815918 C-60.92868172 16.11630845 -61.39351581 12.9572273 -61.91015625 9.734375 C-61.97071776 8.08952434 -61.9979758 6.44264543 -61.97265625 4.796875 C-61.96363281 4.02472656 -61.95460938 3.25257812 -61.9453125 2.45703125 C-61.92791016 1.60431641 -61.92791016 1.60431641 -61.91015625 0.734375 C-57.08981363 1.14754722 -55.00023014 3.11457415 -51.91015625 6.734375 C-51.91015625 7.394375 -51.91015625 8.054375 -51.91015625 8.734375 C-51.33265625 9.023125 -50.75515625 9.311875 -50.16015625 9.609375 C-48.07682292 10.65104167 -45.99348958 11.69270833 -43.91015625 12.734375 C-43.16765625 10.9709375 -43.16765625 10.9709375 -42.41015625 9.171875 C-39.44091574 3.33685184 -35.39406539 -0.68646992 -29.40234375 -3.40234375 C-19.18044501 -6.69540442 -8.96548134 -6.10292085 0 0 Z " fill="#0D8598" transform="translate(369.91015625,109.265625)"/>
<path d="M0 0 C7.05556486 4.08163223 11.29821898 10.28205905 13.81958008 17.93432617 C14.50558486 21.42642226 14.49275508 24.91097335 14.52734375 28.45703125 C14.5354155 29.24890839 14.54348724 30.04078552 14.55180359 30.85665894 C14.56561434 32.53267245 14.57634991 34.20871373 14.58422852 35.88476562 C14.59571247 37.58374382 14.61610721 39.28268695 14.64575195 40.98144531 C15.0000922 61.30751041 15.0000922 61.30751041 8.203125 69.98828125 C1.40707518 75.81015328 -5.832429 80.15791814 -13.7109375 84.32421875 C-7.51138942 88.67080174 -1.3167788 92.99124091 5.1015625 97.01171875 C8.32686799 99.03278572 11.40613933 101.11763333 14.4140625 103.44921875 C17.86020084 106.10665326 21.46877152 108.20725009 25.30859375 110.24609375 C27.2890625 111.32421875 27.2890625 111.32421875 30.2890625 113.32421875 C30.2944122 107.48846044 30.26057736 101.65468769 30.19140625 95.81933594 C30.17330847 93.83698253 30.1656664 91.85450361 30.16894531 89.87207031 C30.17182036 87.01139389 30.13632134 84.15328738 30.09375 81.29296875 C30.10284393 80.4155603 30.11193787 79.53815186 30.12130737 78.63415527 C29.98317339 72.70242737 28.55690279 69.47616823 24.66215515 64.98963928 C21.8417992 61.56883683 21.99068396 57.57090861 22.2890625 53.32421875 C24.00313163 47.51542892 26.89221939 43.35804288 32.1484375 40.2109375 C36.5982956 38.36765686 41.80767999 38.49865482 46.35546875 40.01171875 C51.64602496 42.7541237 54.4405864 46.77879045 56.2890625 52.32421875 C56.71105929 57.81017696 55.89364116 61.47431366 53.2890625 66.32421875 C52.4396257 67.08536484 51.5901889 67.84651093 50.7150116 68.63072205 C47.73694017 71.9372323 47.66381724 73.40813917 47.66137695 77.79516602 C47.64818924 79.08322647 47.63500153 80.37128693 47.62141418 81.69837952 C47.63149509 83.09579635 47.64181059 84.4932115 47.65234375 85.890625 C47.64429941 87.33122804 47.63377886 88.77181919 47.62089539 90.21238708 C47.5923861 93.99705271 47.59176458 97.78117025 47.59875488 101.56591797 C47.60608684 107.62657596 47.57471218 113.68705752 47.53630638 119.74757195 C47.52746551 121.86151093 47.53275308 123.97506641 47.53987122 126.08900452 C47.53613998 127.37391281 47.53240875 128.65882111 47.52856445 129.98266602 C47.53120049 131.67879784 47.53120049 131.67879784 47.53388977 133.40919495 C47.2888032 136.32730611 46.92541492 137.92196421 45.2890625 140.32421875 C40.89349459 143.36730422 37.74492473 145.30627395 32.2890625 144.32421875 C25.85221103 141.45389599 20.12129177 137.23531377 14.2890625 133.32421875 C10.20665818 130.59366096 6.12289434 127.86514089 2.0390625 125.13671875 C0.976875 124.42580078 -0.0853125 123.71488281 -1.1796875 122.98242188 C-2.71882813 121.9547168 -2.71882813 121.9547168 -4.2890625 120.90625 C-5.67206543 119.98162964 -5.67206543 119.98162964 -7.08300781 119.03833008 C-8.86769037 117.87424087 -10.69323779 116.7709779 -12.54980469 115.7253418 C-13.26297852 115.26297119 -13.97615234 114.80060059 -14.7109375 114.32421875 C-14.7109375 113.66421875 -14.7109375 113.00421875 -14.7109375 112.32421875 C-15.3915625 112.07671875 -16.0721875 111.82921875 -16.7734375 111.57421875 C-20.27958833 110.08223967 -23.42714118 108.25586364 -26.7109375 106.32421875 C-26.7109375 105.66421875 -26.7109375 105.00421875 -26.7109375 104.32421875 C-27.3709375 104.09734375 -28.0309375 103.87046875 -28.7109375 103.63671875 C-34.78527184 100.97919747 -40.04976295 98.00424667 -43.7109375 92.32421875 C-44.2421875 88.94921875 -44.2421875 88.94921875 -44.2109375 85.32421875 C-44.22125 84.12796875 -44.2315625 82.93171875 -44.2421875 81.69921875 C-43.60322977 77.63995787 -42.64273869 76.17471387 -39.7109375 73.32421875 C-37.45396231 71.78779341 -35.26464289 70.41173234 -32.8984375 69.07421875 C-31.56508039 68.29561364 -30.23174781 67.5169665 -28.8984375 66.73828125 C-27.50266771 65.93348354 -26.10683343 65.12879766 -24.7109375 64.32421875 C-21.9334234 62.71036097 -19.16445264 61.08268428 -16.3984375 59.44921875 C-15.75865967 59.08022461 -15.11888184 58.71123047 -14.4597168 58.33105469 C-11.40186459 56.5272911 -9.71539008 55.33089761 -7.7109375 52.32421875 C-7.28175083 49.04714007 -7.38669428 45.75141326 -7.3984375 42.44921875 C-7.38232422 41.55074219 -7.36621094 40.65226562 -7.34960938 39.7265625 C-7.3459949 34.83255902 -7.37775951 31.2129264 -10.7109375 27.32421875 C-14.63624021 25.73739425 -16.49621889 25.86155132 -20.44921875 27.3671875 C-26.58165879 30.33398404 -32.29672601 33.87823638 -37.9921875 37.6015625 C-40.70042034 39.31755486 -43.45038924 40.86814082 -46.2734375 42.38671875 C-51.76485926 45.34564935 -51.76485926 45.34564935 -57.2109375 48.38671875 C-58.40203125 49.05380859 -58.40203125 49.05380859 -59.6171875 49.734375 C-62.32021761 51.78686241 -63.28383462 53.20283734 -64.7109375 56.32421875 C-65.15365736 59.78298571 -65.13130117 63.21604781 -65.109375 66.69921875 C-65.11224518 67.70130371 -65.11511536 68.70338867 -65.11807251 69.73583984 C-65.12011036 71.8505917 -65.11460007 73.96536252 -65.10205078 76.08007812 C-65.08599357 79.31292966 -65.10190938 82.544531 -65.12109375 85.77734375 C-65.11911127 87.83463817 -65.11526749 89.89193181 -65.109375 91.94921875 C-65.11544769 92.9139209 -65.12152039 93.87862305 -65.1277771 94.87255859 C-65.07551573 99.87094933 -64.91716895 103.2407106 -61.7109375 107.32421875 C-58.28452277 112.96233262 -56.57572236 117.68152419 -57.7109375 124.32421875 C-59.72879975 130.53529718 -61.95649179 134.80646295 -67.7734375 138.01171875 C-73.02771089 140.09569216 -78.61077556 140.36115113 -83.98828125 138.5625 C-88.87905225 136.258282 -92.54086347 133.72287051 -94.9609375 128.76171875 C-96.29050978 122.6678458 -96.6434663 116.76655609 -94.3984375 110.88671875 C-93.34615874 109.28881397 -92.24815169 107.71903731 -91.0859375 106.19921875 C-88.58611797 102.79037394 -88.59247254 99.38075593 -88.64501953 95.25537109 C-88.65965744 93.742621 -88.65965744 93.742621 -88.67459106 92.1993103 C-88.68916351 91.11388947 -88.70373596 90.02846863 -88.71875 88.91015625 C-88.73627676 86.5989628 -88.75318402 84.28776459 -88.76953125 81.9765625 C-88.80039642 78.34280127 -88.8358087 74.70928003 -88.88232422 71.07568359 C-88.92493287 67.56214509 -88.94818614 64.04888403 -88.96875 60.53515625 C-88.98737091 59.4618808 -89.00599182 58.38860535 -89.025177 57.2828064 C-89.05110929 49.56972791 -88.4807004 41.93330374 -83.6484375 35.63671875 C-77.03440776 30.42992938 -70.27072918 25.93801433 -62.8359375 21.98828125 C-53.95886708 17.26124125 -45.15003264 12.44443978 -36.86328125 6.734375 C-24.97005154 -1.05774101 -13.82022952 -6.25200859 0 0 Z M-80.7109375 120.32421875 C-80.44417546 122.30913517 -80.44417546 122.30913517 -79.7109375 124.32421875 C-76.81906964 125.65726573 -76.81906964 125.65726573 -74.5234375 124.38671875 C-73.9253125 124.03609375 -73.3271875 123.68546875 -72.7109375 123.32421875 C-73.0409375 122.00421875 -73.3709375 120.68421875 -73.7109375 119.32421875 C-77.19675606 118.12221235 -77.39086094 118.11083438 -80.7109375 120.32421875 Z " fill="#F16934" transform="translate(241.7109375,129.67578125)"/>
<path d="M0 0 C9.00756592 6.46614553 12.64803783 15.3347403 14.72801208 26.02908325 C15.19577599 29.30801303 15.30767367 32.40351166 15.30102539 35.71435547 C15.30091209 37.60563675 15.30091209 37.60563675 15.30079651 39.53512573 C15.29569109 40.8958134 15.29047511 42.25650065 15.28515625 43.6171875 C15.28328912 45.02108713 15.28186661 46.42498742 15.28086853 47.82888794 C15.27706658 51.50807522 15.26725633 55.18722248 15.25616455 58.86639404 C15.24590031 62.62706959 15.24130526 66.38775185 15.23632812 70.1484375 C15.22616363 77.51566025 15.20658608 84.88277335 15.1875 92.25 C3.6375 92.25 -7.9125 92.25 -19.8125 92.25 C-19.84988281 88.38410156 -19.88726563 84.51820313 -19.92578125 80.53515625 C-19.97205293 76.77199799 -20.02326625 73.00893696 -20.07495117 69.24584961 C-20.10811126 66.63979042 -20.13617065 64.03366096 -20.15893555 61.42749023 C-20.19264489 57.6714089 -20.24497112 53.91596645 -20.30078125 50.16015625 C-20.30717117 49.00354996 -20.3135611 47.84694366 -20.32014465 46.6552887 C-20.45811519 38.98477981 -20.74410138 31.4757524 -26.25 25.6875 C-31.47416729 23.57950267 -36.2559312 23.4943677 -41.8125 24.25 C-45.34836711 25.74425916 -45.34836711 25.74425916 -47.8125 28.25 C-48.92625 29.2709375 -48.92625 29.2709375 -50.0625 30.3125 C-54.48181408 37.73063435 -54.12867017 47.40748439 -54.2265625 55.82421875 C-54.24592865 56.87406448 -54.2652948 57.92391022 -54.2852478 59.00556946 C-54.34440828 62.31613369 -54.39117196 65.62673391 -54.4375 68.9375 C-54.47573839 71.19988387 -54.5147934 73.46225409 -54.5546875 75.72460938 C-54.65157375 81.23299665 -54.73164559 86.74126149 -54.8125 92.25 C-66.3625 92.25 -77.9125 92.25 -89.8125 92.25 C-89.8125 59.91 -89.8125 27.57 -89.8125 -5.75 C-78.5925 -5.75 -67.3725 -5.75 -55.8125 -5.75 C-55.3175 -1.295 -55.3175 -1.295 -54.8125 3.25 C-53.74 2.3425 -52.6675 1.435 -51.5625 0.5 C-36.36916419 -10.65058733 -15.59868175 -9.43655788 0 0 Z " fill="#0F8699" transform="translate(832.8125,177.75)"/>
<path d="M0 0 C0.8758374 0.00563965 1.7516748 0.0112793 2.65405273 0.01708984 C16.64167967 0.27810607 28.98755766 4.60415224 39.34375 14.28125 C52.08728657 28.32073945 52.1875 41.15056633 52.1875 60.3125 C29.0875 60.3125 5.9875 60.3125 -17.8125 60.3125 C-16.4925 62.2925 -15.1725 64.2725 -13.8125 66.3125 C-13.8125 66.9725 -13.8125 67.6325 -13.8125 68.3125 C-12.50172893 69.022501 -11.1590266 69.67289986 -9.8125 70.3125 C-8.69875 70.84875 -7.585 71.385 -6.4375 71.9375 C2.26416283 75.10321689 11.76724849 74.19250963 20.1015625 70.48046875 C22.28884796 69.25575273 24.22176528 67.86462991 26.1875 66.3125 C31.03059854 68.48029311 34.27461009 71.99359226 38 75.6875 C38.70576172 76.36039062 39.41152344 77.03328125 40.13867188 77.7265625 C40.80060547 78.38140625 41.46253906 79.03625 42.14453125 79.7109375 C42.75272705 80.30567871 43.36092285 80.90041992 43.98754883 81.51318359 C45.1875 83.3125 45.1875 83.3125 44.95751953 85.44213867 C42.57559176 91.22779138 35.40565674 94.70764079 30.01953125 97.2109375 C12.34276046 104.08659179 -8.54664973 103.35492781 -25.9296875 95.9921875 C-38.02647699 89.86001998 -47.16155947 80.42504172 -51.6875 67.5 C-55.94290195 53.57567844 -54.68246001 38.67997589 -48.25 25.6875 C-41.08968151 13.57941885 -30.04272238 5.696201 -16.65795898 1.66333008 C-11.10023368 0.29140556 -5.70941646 -0.03873041 0 0 Z M-15.75 32.75 C-17.82902051 35.7874842 -18.02447776 37.37238882 -18.8125 41.3125 C-6.2725 41.3125 6.2675 41.3125 19.1875 41.3125 C18.10638081 34.82578489 16.8961507 32.53111013 12.1875 28.3125 C2.77461213 22.70097069 -8.93962843 23.83814235 -15.75 32.75 Z " fill="#0F8699" transform="translate(1062.8125,170.6875)"/>
<path d="M0 0 C4.50963965 2.68679583 7.48156679 6.46844414 9.4375 11.3125 C9.73828125 14.5546875 9.73828125 14.5546875 9.75 18.1875 C9.76675781 19.38117188 9.78351563 20.57484375 9.80078125 21.8046875 C9.24021891 27.21742927 7.26200401 31.10408493 3.0625 34.5625 C2.49789063 35.04203125 1.93328125 35.5215625 1.3515625 36.015625 C-4.29007456 39.83812195 -9.95026489 40.04616092 -16.5625 39.3125 C-22.76943174 37.5375726 -27.00849372 33.61276542 -30.5625 28.3125 C-32.67176295 21.98471115 -32.75206345 13.96347941 -30 7.8125 C-24.01660117 -2.29517017 -10.31655755 -4.82737033 0 0 Z " fill="#F26A35" transform="translate(1141.5625,232.6875)"/>
</svg>
